<svg xmlns="http://www.w3.org/2000/svg" width="596.587" height="219.92" viewBox="0 0 447.44 164.94"><defs><clipPath id="a"><path d="M0 0h437v164.941H0Zm0 0"/></clipPath><clipPath id="b"><path d="M10 0h437.441v164.941H10Zm0 0"/></clipPath><clipPath id="c"><path d="M5 0h438v164.941H5Zm0 0"/></clipPath></defs><g clip-path="url(#a)"><path fill="#e0067f" d="M238.277 102.027c-1.859-1.246-7.484-1.246-13.086-1.906-5.601-.598-8.093-1.844-3.734-4.328 4.363-2.496 12.465-16.813 12.465-16.813 0 3.727 0 9.317 2.496 11.22 2.477 1.835 6.848 1.835 6.848 4.956s-3.121 8.094-4.989 6.871m189.965-55.46c-3.742-3.735-9.965-11.82-13.707-15.555-3.742-3.723-8.71-4.375-18.07-6.23-4.98-7.485-13.703-4.989-16.82 0-3.735 0-18.692 5.609-24.922 10.593-6.22 4.98-32.371 4.98-42.336 0-9.969-4.984-19.93-22.422-36.121-31.145-16.2-8.73-39.88-1.25-39.88-1.25-21.8-4.37-59.144 32.395-74.71 45.454-15.578 13.086-29.899 18.687-43.606 23.062-13.687 4.379-62.902 12.45-81.593 14.293-18.668 1.906-33.63 16.852-36.118 20.582-2.5 3.758 8.715 13.7 13.715 10.606 4.965-3.114 21.164-11.836 29.875-15.602 8.742-3.727 42.367-8.078 55.446-9.34 13.066-1.25 52.32-13.055 54.808-14.922 2.484-1.883 7.473-6.87 8.73 0 1.231 6.832 9.344 16.184 17.415 14.332 8.109-1.89 6.226 1.852 3.742 7.453-2.473 5.598 1.254 15.555 9.976 15.555s28.649 3.121 32.38 3.121c3.745 0 2.48 2.496-4.36 4.989-6.863 2.5-9.332 5.624-1.246 8.714 8.086 3.121 21.187 3.121 26.144-.617 4.996-3.75 3.75-10.59 6.262-14.332 2.461-3.73 4.969 4.988 1.848 10.582-3.114 5.637-6.227 14.973-11.828 14.973-5.61 0-18.7 5.594-23.676 8.094-4.988 2.496-11.215 11.191-3.73 13.699 7.464 2.476 12.452 1.254 16.816-3.113 4.37-4.364 15.562-1.875 24.277-5.61 8.738-3.758 11.871-9.957 12.465-13.07.629-3.145 4.348-3.145 4.348-3.742.648 6.254 3.75 3.742 11.214 8.113 7.477 4.348 17.457 3.723 22.418-1.258 4.989-4.988 0-7.465-6.203-9.348-6.234-1.886-11.855-3.73-16.84-6.238-4.964-2.5 3.13-4.984 9.364-6.23 6.207-1.243 26.148-3.723 30.492-8.727 4.402-4.973 19.344-16.805 25.566-19.902 13.051-4.352 21.16-9.356 30.504-15.57 9.336-6.243 17.43-5.004 20.559-4.368 3.105.617 13.07 6.219 17.437 6.219 4.348 0 11.22-2.473 11.82-8.707.63-6.227 3.762-9.352 6.231-13.086 2.492-3.742-4.36-8.723-8.086-12.473"/></g><g clip-path="url(#b)"><path fill="#f4f014" d="M248.86 102.027c-1.86-1.246-7.485-1.246-13.087-1.906-5.605-.598-8.093-1.844-3.734-4.328C236.402 93.297 244.5 78.98 244.5 78.98c0 3.727 0 9.317 2.5 11.22 2.473 1.835 6.848 1.835 6.848 4.956s-3.121 8.094-4.989 6.871m189.964-55.46c-3.742-3.735-9.969-11.82-13.71-15.555-3.743-3.723-8.708-4.375-18.067-6.23-4.98-7.485-13.703-4.989-16.82 0-3.739 0-18.692 5.609-24.922 10.593-6.22 4.98-32.371 4.98-42.34 0C313 30.391 303.039 12.953 286.848 4.23c-16.2-8.73-39.88-1.25-39.88-1.25-21.8-4.37-59.144 32.395-74.714 45.454-15.574 13.086-29.895 18.687-43.602 23.062-13.687 4.379-62.902 12.45-81.593 14.293-18.668 1.906-33.63 16.852-36.118 20.582-2.5 3.758 8.715 13.7 13.715 10.606 4.965-3.114 21.164-11.836 29.875-15.602 8.742-3.727 42.364-8.078 55.446-9.34 13.062-1.25 52.32-13.055 54.808-14.922 2.485-1.883 7.469-6.87 8.73 0 1.231 6.832 9.344 16.184 17.415 14.332 8.11-1.89 6.226 1.852 3.742 7.453-2.477 5.598 1.254 15.555 9.976 15.555s28.649 3.121 32.375 3.121c3.75 0 2.485 2.496-4.355 4.989-6.863 2.5-9.332 5.624-1.246 8.714 8.086 3.121 21.187 3.121 26.144-.617 4.997-3.75 3.75-10.59 6.262-14.332 2.461-3.73 4.965 4.988 1.848 10.582-3.113 5.637-6.227 14.973-11.828 14.973-5.61 0-18.7 5.594-23.68 8.094-4.984 2.496-11.211 11.191-3.727 13.699 7.465 2.476 12.454 1.254 16.817-3.113 4.37-4.364 15.562-1.875 24.277-5.61 8.738-3.758 11.871-9.957 12.465-13.07.629-3.145 4.348-3.145 4.348-3.742.648 6.254 3.75 3.742 11.214 8.113 7.477 4.348 17.458 3.723 22.418-1.258 4.985-4.988 0-7.465-6.203-9.348-6.234-1.886-11.859-3.73-16.84-6.238-4.964-2.5 3.13-4.984 9.36-6.23 6.21-1.243 26.152-3.723 30.496-8.727 4.402-4.973 19.344-16.805 25.566-19.902 13.051-4.352 21.157-9.356 30.504-15.57 9.336-6.243 17.43-5.004 20.559-4.368 3.105.617 13.07 6.219 17.433 6.219 4.352 0 11.223-2.473 11.825-8.707.629-6.227 3.761-9.352 6.23-13.086 2.492-3.742-4.36-8.723-8.086-12.473"/></g><g clip-path="url(#c)"><path fill="#312f34" d="M244.07 102.027c-1.86-1.246-7.484-1.246-13.09-1.906-5.601-.598-8.09-1.844-3.734-4.328 4.367-2.496 12.465-16.813 12.465-16.813 0 3.727 0 9.317 2.5 11.22 2.473 1.835 6.844 1.835 6.844 4.956s-3.118 8.094-4.985 6.871m189.965-55.46c-3.742-3.735-9.969-11.82-13.71-15.555-3.743-3.723-8.708-4.375-18.067-6.23-4.98-7.485-13.703-4.989-16.824 0-3.735 0-18.688 5.609-24.922 10.593-6.215 4.98-32.367 4.98-42.336 0-9.969-4.984-19.926-22.422-36.121-31.145-16.2-8.73-39.875-1.25-39.875-1.25-21.801-4.37-59.145 32.395-74.715 45.454-15.578 13.086-29.895 18.687-43.606 23.062-13.687 4.379-62.902 12.45-81.59 14.293-18.667 1.906-33.628 16.852-36.12 20.582-2.497 3.758 8.714 13.7 13.718 10.606 4.965-3.114 21.164-11.836 29.871-15.602 8.746-3.727 42.367-8.078 55.45-9.34 13.062-1.25 52.316-13.055 54.808-14.922 2.48-1.883 7.469-6.87 8.727 0 1.234 6.832 9.347 16.184 17.418 14.332 8.105-1.89 6.222 1.852 3.742 7.453-2.477 5.598 1.254 15.555 9.972 15.555 8.723 0 28.653 3.121 32.38 3.121 3.75 0 2.484 2.496-4.36 4.989-6.86 2.5-9.328 5.624-1.242 8.714 8.086 3.121 21.183 3.121 26.144-.617 4.996-3.75 3.75-10.59 6.262-14.332 2.461-3.73 4.965 4.988 1.844 10.582-3.11 5.637-6.223 14.973-11.828 14.973-5.61 0-18.696 5.594-23.676 8.094-4.988 2.496-11.211 11.191-3.727 13.699 7.461 2.476 12.45 1.254 16.813-3.113 4.375-4.364 15.562-1.875 24.277-5.61 8.738-3.758 11.875-9.957 12.465-13.07.633-3.145 4.352-3.145 4.352-3.742.644 6.254 3.75 3.742 11.21 8.113 7.481 4.348 17.461 3.723 22.418-1.258 4.989-4.988 0-7.465-6.203-9.348-6.23-1.886-11.855-3.73-16.836-6.238-4.964-2.5 3.13-4.984 9.36-6.23 6.21-1.243 26.152-3.723 30.496-8.727 4.402-4.973 19.34-16.805 25.566-19.902 13.051-4.352 21.157-9.356 30.5-15.57 9.34-6.243 17.434-5.004 20.559-4.368 3.105.617 13.074 6.219 17.437 6.219 4.352 0 11.22-2.473 11.82-8.707.63-6.227 3.766-9.352 6.235-13.086 2.488-3.742-4.36-8.723-8.086-12.473"/></g></svg>