<svg xmlns="http://www.w3.org/2000/svg" width="557.027" height="158.88" viewBox="0 0 417.77 119.16"><defs><clipPath id="a"><path d="M0 0h110v119.16H0Zm0 0"/></clipPath><clipPath id="b"><path d="M109 0h100v119.16H109Zm0 0"/></clipPath><clipPath id="c"><path d="M208 0h101v119.16H208Zm0 0"/></clipPath><clipPath id="d"><path d="M308 0h109.77v119.16H308Zm0 0"/></clipPath></defs><g clip-path="url(#a)"><path fill="#e0067f" d="M59.582 119.16C26.676 119.16 0 92.484 0 59.578S26.676 0 59.582 0c20.86 0 39.215 10.719 49.86 26.953-6.145 9.371-9.72 20.582-9.72 32.625 0 12.047 3.575 23.258 9.72 32.629-10.645 16.234-29 26.953-49.86 26.953"/></g><path fill="#fff" d="M67.008 55.258c0-2.574-2.07-4.031-4.649-4.031h-7.613v8.007h7.613c2.578 0 4.649-1.453 4.649-3.976M45.113 80.18V42.828h18.703c8.399 0 12.993 5.656 12.993 12.43 0 6.722-4.594 12.379-12.993 12.379h-9.07V80.18z"/><g clip-path="url(#b)"><path fill="#43a6d6" d="M159.3 119.16c-20.859 0-39.214-10.719-49.859-26.953 6.145-9.371 9.72-20.582 9.72-32.629 0-12.043-3.575-23.254-9.72-32.625C120.086 10.72 138.441 0 159.301 0c20.742 0 39.008 10.594 49.676 26.672-6.258 9.426-9.907 20.742-9.907 32.906 0 12.168 3.649 23.48 9.907 32.91-10.668 16.075-28.934 26.672-49.676 26.672"/></g><path fill="#21255a" d="M109.441 92.207c-6.144-9.371-9.718-20.582-9.718-32.629 0-12.043 3.574-23.254 9.718-32.625 6.145 9.371 9.72 20.582 9.72 32.625 0 12.047-3.575 23.258-9.72 32.629"/><path fill="#fff" d="M141.477 65.059v-22.23h9.8v21.894c0 4.425 2.688 7.617 7.895 7.617 5.152 0 7.84-3.192 7.84-7.617V42.828h9.746v22.176c0 9.297-5.602 15.848-17.586 15.848s-17.695-6.61-17.695-15.793"/><g clip-path="url(#c)"><path fill="#f4f014" d="M258.652 119.16c-20.742 0-39.004-10.597-49.675-26.672 6.257-9.43 9.906-20.742 9.906-32.91 0-12.164-3.649-23.48-9.906-32.906C219.648 10.594 237.91 0 258.652 0c20.801 0 39.114 10.656 49.77 26.809-6.203 9.402-9.813 20.664-9.813 32.77 0 12.105 3.61 23.37 9.813 32.769-10.656 16.156-28.969 26.812-49.77 26.812"/></g><path fill="#2da140" d="M208.977 92.488c-6.258-9.43-9.907-20.742-9.907-32.91 0-12.164 3.649-23.48 9.907-32.906 6.257 9.426 9.906 20.742 9.906 32.906 0 12.168-3.649 23.48-9.906 32.91"/><path fill="#fff" d="M270.215 80.18V55.484l-9.406 24.696h-4.254l-9.465-24.696V80.18h-9.633V42.828h13.383l7.84 20.606 7.785-20.606h13.383V80.18z"/><g clip-path="url(#d)"><path fill="#312f34" d="M358.188 119.16c-20.801 0-39.11-10.656-49.766-26.812 6.2-9.399 9.812-20.664 9.812-32.77 0-12.105-3.613-23.367-9.812-32.77C319.078 10.657 337.387 0 358.187 0c32.907 0 59.583 26.672 59.583 59.578s-26.676 59.582-59.582 59.582"/></g><path fill="#302d17" d="M308.422 92.348c-6.203-9.399-9.813-20.664-9.813-32.77 0-12.105 3.61-23.367 9.813-32.77 6.2 9.403 9.812 20.665 9.812 32.77s-3.613 23.371-9.812 32.77"/><path fill="#fff" d="m358.215 52.348-4.758 14.054h9.465Zm9.187 27.832-1.851-5.375h-14.727l-1.847 5.375h-10.922l14.058-37.352h12.153L378.32 80.18z"/></svg>